PathFileType	4	(X/Y/Z)	S01_0014_Gait_markers.trc
DataRate	CameraRate	NumFrames	NumMarkers	Units	OrigDataRate	OrigDataStartFrame	OrigNumFrames
250.000000	250.000000	4	54	mm	250.000000	137	367
Frame#	Time	HEAD_ANT			R_HEAD			L_HEAD			C7			R_BACK			L_BACK			STERNUM			R_ACROMION			R_HUM_PROX			R_HUM_ANT			R_HUM_POST			R_ELBOW_LAT			R_ELBOW_MED			R_FOREARM			R_WIRST_LAT			R_WRITS_MED			R_HAND			L_ACROMION			L_HUM_PROX			L_HUM_ANT			L_HUM_POST			L_ELBOW_LAT			L_ELBOW_MED			L_FOREARM			L_WRIST_LAT			L_WIRST_MED			L_HAND			R_ILIAC			SACRUM			L_ILIAC			R_GTROCH			R_THIGH__1			R_THIGH_2			R_THIGH_3			R_THIGH_4			R_SHANK_1			R_SHANK_2			R_SHANK_3			R_SHANK_4			R_HEEL			R_FOOT_LAT			R_FOOT_MED			L_GTROCH			L_THIGH_1			L_THIGH_2			L_THIGH_3			L_THIGH_4			L_SHANK_1			L_SHANK_2			L_SHANK_3			L_SHANK_4			L_HEEL			L_FOOT_LAT			L_FOOT_MED			
		X1	Y1	Z1	X2	Y2	Z2	X3	Y3	Z3	X4	Y4	Z4	X5	Y5	Z5	X6	Y6	Z6	X7	Y7	Z7	X8	Y8	Z8	X9	Y9	Z9	X10	Y10	Z10	X11	Y11	Z11	X12	Y12	Z12	X13	Y13	Z13	X14	Y14	Z14	X15	Y15	Z15	X16	Y16	Z16	X17	Y17	Z17	X18	Y18	Z18	X19	Y19	Z19	X20	Y20	Z20	X21	Y21	Z21	X22	Y22	Z22	X23	Y23	Z23	X24	Y24	Z24	X25	Y25	Z25	X26	Y26	Z26	X27	Y27	Z27	X28	Y28	Z28	X29	Y29	Z29	X30	Y30	Z30	X31	Y31	Z31	X32	Y32	Z32	X33	Y33	Z33	X34	Y34	Z34	X35	Y35	Z35	X36	Y36	Z36	X37	Y37	Z37	X38	Y38	Z38	X39	Y39	Z39	X40	Y40	Z40	X41	Y41	Z41	X42	Y42	Z42	X43	Y43	Z43	X44	Y44	Z44	X45	Y45	Z45	X46	Y46	Z46	X47	Y47	Z47	X48	Y48	Z48	X49	Y49	Z49	X50	Y50	Z50	X51	Y51	Z51	X52	Y52	Z52	X53	Y53	Z53	X54	Y54	Z54	

138	0.548	747.1027221679688	1737.1826171875	-284.1634826660152	687.9901123046875	1690.14697265625	-205.1826782226559	685.5597534179688	1690.44091796875	-352.9299011230465	544.416259765625	1523.282592773438	-277.3551025390622	473.3748779296875	1326.973754882812	-206.5935516357419	469.0741882324219	1329.517700195312	-348.6486816406247	718.6775512695312	1359.35791015625	-284.8453979492185	627.8872680664062	1470.1689453125	-108.8176727294919	604.4716186523438	1309.241821289062	-14.7709197998044	671.0848388671875	1227.238037109375	-17.92298698425266	551.2391357421875	1222.835327148438	4.143819808960233	605.2634887695312	1119.825317382812	5.777223110199223	571.451904296875	1114.054809570312	-70.82361602783179	728.9666748046875	950.9705200195312	-11.69651126861551	770.380126953125	892.862060546875	-57.29818344116191	712.6224975585938	858.5956420898438	-11.77966022491436	795.384033203125	806.924560546875	-5.60173511505109	617.3319702148438	1480.847290039062	-447.8059082031247	585.7447509765625	1316.750244140625	-545.4116821289059	646.0958251953125	1235.247314453125	-552.7223510742185	522.5421142578125	1240.737426757813	-566.9308471679685	579.1660766601562	1134.746704101563	-581.5995483398435	530.7875366210938	1128.840087890625	-519.894836425781	690.6427612304688	963.9635620117189	-575.4482421874998	728.2774047851562	903.2926635742189	-525.440002441406	680.4035034179688	881.5863037109376	-587.1434936523435	758.0803833007812	824.8923950195314	-574.490051269531	617.328125	1072.534912109375	-114.7281188964841	485.4876403808594	1047.591674804688	-284.837951660156	604.5775146484375	1073.014282226562	-458.5848999023435	561.5335693359375	930.6480712890625	-104.3262023925779	550.4832763671875	654.3497924804688	-127.613555908203	609.1587524414062	660.6510620117188	-123.9709167480467	595.2322998046875	560.3358154296875	-160.7377777099608	533.0169677734375	576.5399780273438	-149.8645935058592	469.1177062988281	352.4514770507813	-152.451446533203	519.0221557617188	322.9178771972657	-170.4954223632812	499.0995483398438	241.1514739990235	-189.9177703857421	437.9122619628906	257.8478088378907	-177.1424713134765	357.0608825683594	61.91108703613287	-265.7774658203125	511.7118530273438	20.77416038513188	-172.5741271972656	574.7318115234375	28.28915596008307	-270.5658264160156	582.002685546875	957.9803466796876	-469.1774902343748	768.3961181640625	705.1428222656251	-463.1929321289061	711.720947265625	704.7900390625001	-480.5534362792967	730.8666381835938	603.1380004882814	-454.8971252441405	790.18798828125	627.2451782226564	-443.2604064941405	760.5411376953125	345.7332763671876	-444.9280395507812	702.0512084960938	329.1383361816407	-442.7800598144531	694.174560546875	243.3615722656251	-425.8440551757812	758.60205078125	244.5722808837891	-423.0546264648437	650.1307983398438	54.88442611694344	-349.3746948242188	816.417236328125	30.99879455566416	-435.1678771972656	861.3818359375	42.32352066040047	-346.4204406738281	
139	0.552	752.5885009765625	1736.483032226562	-284.5474243164059	693.3283081054688	1689.514770507812	-205.7286834716793	691.004150390625	1689.639526367188	-353.3328857421871	549.7823486328125	1522.69921875	-277.5783386230465	478.78369140625	1326.456665039062	-206.6305847167966	474.23583984375	1328.975952148438	-348.7134704589841	723.9431762695312	1358.336791992188	-285.5041198730466	633.4202880859375	1469.4521484375	-109.0762405395505	610.230712890625	1308.553833007812	-15.12009143829317	676.9457397460938	1226.768432617188	-18.34887123107883	557.1056518554688	1222.217163085938	3.951677560806546	611.3718872070312	1119.000244140625	5.417259693146001	577.5607299804688	1113.310180664062	-71.07965087890601	735.649169921875	950.9945678710938	-12.25387001037577	776.9954833984375	892.77587890625	-57.76501083374004	719.326171875	858.3203125	-12.02468585967999	802.3189086914062	806.9287109375	-6.035155773162662	622.6563110351562	1480.205078125	-448.2673950195309	590.5880737304688	1315.910766601563	-545.5565795898434	650.8287353515625	1234.395385742188	-552.9208374023435	527.36328125	1240.010620117188	-566.8593749999998	583.6314697265625	1134.0283203125	-581.5378417968748	535.6817016601562	1128.01123046875	-519.5285644531248	695.4776000976562	963.4212646484376	-575.9442749023435	733.52099609375	902.9848022460939	-526.710510253906	685.3882446289062	881.0019531250001	-587.383361816406	763.174560546875	824.5350952148439	-575.1466064453123	621.6175537109375	1072.00537109375	-115.1134338378904	490.3800964355469	1046.9140625	-285.4149169921873	609.4378051757812	1072.272705078125	-458.8061523437498	566.1216430664062	930.4824829101562	-104.6697769165037	553.091552734375	654.5331420898438	-127.8211135864256	611.741943359375	660.3262329101562	-124.0637969970702	597.2612915039062	560.1130981445312	-160.6136016845702	535.0499267578125	577.0574951171875	-150.0184936523436	469.8415222167969	352.8539733886719	-152.3881530761718	519.5393676757812	323.2156372070313	-170.2748107910155	499.5292053222656	241.43115234375	-189.8475189208984	438.3399047851562	258.3435974121094	-177.2911529541015	357.2239685058594	62.56797409057623	-266.1080017089844	511.5809936523438	20.75083541870121	-172.6574859619141	574.79345703125	28.28177452087408	-270.5384826660156	586.8262329101562	957.4359741210939	-469.458557128906	772.6580810546875	704.3150024414064	-461.7105407714842	716.4863891601562	704.6900024414064	-480.4800415039061	736.1355590820312	602.2838745117189	-454.6164550781249	795.589599609375	625.9419555664064	-441.7147216796874	770.39794921875	345.4446411132814	-444.7901306152343	712.136962890625	327.2441711425782	-442.5621643066406	706.501953125	241.2769317626954	-425.6353759765624	770.8086547851562	243.9281158447266	-423.2482299804687	667.3272705078125	51.86735534667977	-349.4592895507812	834.1635131835938	31.03775405883799	-435.0228271484375	878.8283081054688	43.36836242675789	-346.2998046875	
140	0.556	757.7214965820312	1735.7919921875	-285.374847412109	698.717041015625	1688.760375976562	-206.137542724609	696.2554321289062	1688.923828125	-354.0619506835934	555.1869506835938	1521.981811523438	-277.9216613769528	483.7790832519531	1325.95458984375	-206.9044799804685	479.3924255371094	1328.244750976562	-348.766662597656	729.2046508789062	1357.599243164062	-286.1828308105466	638.9224853515625	1468.767211914062	-109.4883804321286	615.9591674804688	1307.958129882812	-15.38403129577608	682.7322387695312	1226.10205078125	-18.80981063842746	563.0736694335938	1221.4716796875	3.793136835098538	617.267822265625	1118.483276367188	5.33079957962061	583.4578857421875	1112.628173828125	-71.3419036865232	741.850830078125	950.2982788085938	-12.56101036071756	783.6221313476562	892.6185302734375	-58.25127029418925	726.068115234375	857.9654541015625	-12.50009727478008	809.3202514648438	806.9139404296875	-6.612869262695133	627.8886108398438	1479.437866210938	-448.517181396484	595.5633544921875	1315.179809570313	-545.8023681640622	655.7901000976562	1233.539184570313	-553.1234741210935	532.1764526367188	1239.265380859375	-566.9475097656248	588.1954345703125	1133.062377929688	-581.537170410156	540.5740966796875	1127.208129882813	-519.2257080078123	700.1688232421875	962.8635253906251	-576.626281738281	738.787353515625	902.6152954101564	-527.5706787109373	690.311279296875	880.5484619140626	-587.9869995117185	768.3316650390625	824.0866699218751	-575.7858276367185	626.8076782226562	1071.223022460938	-115.3011398315427	495.4486999511719	1046.246826171875	-285.7138366699216	614.0864868164062	1071.47802734375	-458.9996643066404	570.7772827148438	930.1851196289062	-104.9857482910154	555.800537109375	654.8493041992188	-127.7535324096678	614.5841064453125	660.3272705078125	-123.6497344970702	599.2091064453125	559.9491577148438	-160.5854644775389	537.0921630859375	577.3280639648438	-150.2681274414061	470.4446716308594	353.1279602050782	-152.4368133544921	520.34619140625	323.5212097167969	-170.0045166015624	499.9853515625	241.6854705810547	-189.7947845458984	438.8348999023438	259.0163269042969	-177.3682556152343	357.4040832519531	63.21537780761724	-266.3488159179688	511.6125183105469	20.7995700836182	-172.5276794433594	574.8947143554688	28.30021858215338	-270.4102478027344	592.1419677734375	956.5545654296876	-469.5062255859373	777.5160522460938	703.5638427734376	-461.4749755859373	721.3278198242188	703.3581542968751	-480.0032653808592	740.792236328125	601.5377197265626	-454.1636962890624	800.4434204101562	625.2415161132814	-441.6579589843749	779.8242797851562	344.9637451171876	-444.5228271484374	722.2879638671875	325.2435302734376	-441.9557800292968	718.8168334960938	239.4123840332032	-425.4045410156249	783.089599609375	243.3801574707032	-423.3229675292968	684.5206909179688	49.19491195678719	-349.2379150390625	851.7053833007812	31.44971656799326	-434.9718322753906	895.8630981445312	44.12950134277352	-346.0164184570312	
141	0.5600000000000001	763.1356811523438	1735.045288085938	-285.8422546386715	704.1264038085938	1687.988647460938	-206.7287902832028	701.6362915039062	1688.011840820312	-354.3161621093746	560.4573974609375	1521.031127929688	-278.299652099609	489.2356567382812	1325.362548828125	-207.073791503906	484.6839294433594	1327.601318359375	-348.9681396484372	734.3969116210938	1356.591796875	-286.2804565429685	644.3968505859375	1468.030395507812	-109.8515624999997	621.74560546875	1307.209838867188	-15.80468749999971	688.556396484375	1225.471313476562	-19.22370910644504	568.9885864257812	1220.6455078125	3.709631919861111	623.3787231445312	1117.717651367188	4.962901592254886	588.8361206054688	1111.775634765625	-71.2889022827146	748.331298828125	950.031494140625	-12.98224639892557	790.2257080078125	892.5350952148438	-58.75404739379863	732.8388671875	857.5203857421875	-12.94890975952129	816.2628784179688	806.824951171875	-7.102491855621158	633.3077392578125	1478.580688476562	-448.7871398925778	600.3169555664062	1314.3857421875	-546.1279907226559	660.3915405273438	1232.669067382813	-553.470031738281	536.8304443359375	1238.693969726563	-567.0357666015623	592.2635498046875	1132.312255859375	-581.7863769531248	545.2564697265625	1126.35595703125	-519.0297851562498	704.9816284179688	962.2953491210939	-577.0551147460935	744.1422729492188	902.1507568359376	-528.3638916015623	695.2742309570312	879.8944091796876	-588.4163818359373	773.348876953125	823.6258544921876	-576.4530029296873	631.8779907226562	1070.51904296875	-115.5888519287107	500.4964294433594	1045.463745117188	-286.0017089843748	618.9737548828125	1070.691284179688	-459.2563476562498	575.4103393554688	930.0108642578125	-105.3653793334959	558.447265625	654.9917602539062	-127.9362411499022	617.23046875	660.117431640625	-123.9291839599608	601.2657470703125	559.7595825195312	-160.4109039306639	539.27783203125	577.5551147460938	-150.3185577392577	471.2748107910156	353.5627746582032	-152.6575317382812	521.2455444335938	323.5869140625001	-170.0639343261718	500.4803161621094	241.9583282470703	-189.739517211914	439.4217834472656	259.5284423828126	-177.4429321289062	357.5841064453125	63.9085197448731	-266.7612915039062	511.3908081054688	20.69368934631352	-172.8670349121094	574.926025390625	28.31451797485358	-270.3990478515625	596.9127197265625	955.7433471679689	-470.0223083496091	782.605224609375	702.7424926757814	-463.0820007324217	725.9154052734375	702.8267211914064	-481.316925048828	745.5926513671875	600.6734619140626	-453.9572753906249	805.0745239257812	624.4364013671876	-441.5162658691405	789.7006225585938	344.6898803710939	-444.4042663574218	732.4544067382812	323.5516662597657	-441.8394775390624	731.3059692382812	237.535629272461	-425.3468627929687	795.20556640625	243.1909332275391	-423.1243286132812	701.4971313476562	46.80228042602547	-349.1522521972656	869.1671752929688	31.85322761535654	-434.8681030273438	913.067138671875	45.58895111083992	-345.8755493164062	
